<?xml version="1.0" standalone="no"?>
<!DOCTYPE svg PUBLIC "-//W3C//DTD SVG 20010904//EN"
 "http://www.w3.org/TR/2001/REC-SVG-20010904/DTD/svg10.dtd">
<svg version="1.0" xmlns="http://www.w3.org/2000/svg"
 width="400.000000pt" height="400.000000pt" viewBox="0 0 400.000000 400.000000"
 preserveAspectRatio="xMidYMid meet">
<metadata>
Created by potrace 1.14, written by Peter Selinger 2001-2017
</metadata>
<g transform="translate(0.000000,400.000000) scale(0.100000,-0.100000)"
fill="#000000" stroke="none">
<path d="M3129 3584 c11 -45 17 -57 19 -40 3 27 16 34 27 16 4 -6 11 -8 16 -5
5 4 9 0 9 -7 0 -9 3 -9 10 2 5 8 10 17 10 20 0 6 -94 80 -102 80 -3 0 2 -29
11 -66z"/>
<path d="M2010 3609 c0 -5 -4 -8 -9 -4 -6 3 -8 -6 -5 -21 3 -14 1 -23 -5 -20
-14 9 -43 -5 -38 -18 15 -40 17 -56 8 -56 -6 0 -11 7 -11 15 0 19 -24 19 -43
0 -13 -12 -17 -12 -26 -1 -9 11 -9 15 1 18 7 3 2 7 -11 11 -18 4 -24 1 -28
-14 -3 -10 -9 -16 -14 -13 -5 3 -6 11 -3 17 4 7 4 9 -1 5 -4 -4 -14 -3 -22 4
-11 8 -12 7 -7 -6 3 -9 10 -16 16 -16 5 0 6 -4 3 -10 -3 -5 0 -10 7 -10 7 0
-2 -9 -21 -21 -18 -11 -31 -23 -28 -26 6 -5 -17 -33 -27 -33 -3 0 -6 7 -6 16
0 9 -6 14 -12 11 -7 -2 -21 0 -32 5 -12 7 -16 7 -12 0 3 -5 -3 -12 -14 -15
-11 -3 -20 -13 -20 -22 0 -9 -4 -14 -9 -10 -5 3 -12 1 -16 -5 -3 -5 -11 -10
-16 -10 -6 0 -7 5 -3 12 4 7 3 8 -4 4 -7 -4 -12 -15 -12 -24 0 -13 -2 -14 -9
-3 -5 7 -11 9 -14 4 -3 -5 3 -17 15 -27 11 -10 17 -21 12 -25 -5 -3 -16 -15
-24 -25 -14 -18 -14 -19 7 -7 20 10 22 9 16 -6 -4 -10 -17 -29 -30 -43 -13
-14 -23 -28 -23 -33 0 -4 -10 -21 -21 -37 -14 -18 -20 -37 -16 -50 6 -24 -23
-40 -81 -45 -19 -2 -42 -11 -51 -19 -10 -9 -21 -13 -24 -9 -4 3 -7 1 -7 -5 0
-7 -9 -12 -19 -12 -21 0 -36 -27 -19 -32 7 -3 5 -14 -5 -33 -15 -27 -16 -28
-17 -8 0 15 -5 21 -14 17 -8 -3 -17 -1 -20 5 -4 6 -13 8 -21 5 -8 -4 -12 -11
-8 -17 3 -6 1 -7 -5 -3 -7 4 -13 2 -13 -3 -3 -21 -4 -26 -12 -38 -5 -7 -5 -13
-1 -13 4 0 -2 -10 -14 -23 -23 -24 -52 -96 -53 -131 0 -18 -2 -18 -7 -4 -11
28 -29 7 -36 -42 -6 -51 -6 -45 -1 -123 3 -43 1 -56 -8 -52 -7 4 -5 1 3 -7 8
-7 15 -19 16 -25 1 -7 2 -18 3 -24 0 -7 26 -10 76 -7 41 2 75 2 75 0 0 -17
-25 -42 -43 -42 -28 -1 -61 -25 -52 -39 3 -6 10 -9 15 -6 5 3 20 -1 34 -10 21
-14 25 -25 28 -81 2 -35 -1 -64 -6 -64 -5 0 -3 -6 3 -14 6 -7 11 -27 10 -42 0
-16 2 -39 6 -51 5 -15 3 -23 -4 -23 -6 0 -11 5 -11 11 0 17 -27 39 -49 39 -12
0 -21 6 -21 15 0 8 -8 15 -17 15 -13 0 -14 3 -5 12 15 15 16 38 1 38 -5 0 -7
-5 -3 -11 4 -8 0 -7 -15 1 -12 6 -19 15 -16 21 6 9 -14 14 -49 10 -20 -1 -48
28 -39 42 3 5 -5 7 -18 5 -22 -3 -24 -8 -27 -65 -2 -35 -7 -63 -11 -63 -4 0
-16 15 -25 33 -13 24 -17 49 -14 99 2 41 -1 63 -6 58 -19 -19 -19 -141 0 -182
9 -21 21 -38 26 -38 4 0 8 -6 8 -12 0 -7 9 -24 20 -38 11 -14 20 -32 20 -40 1
-28 35 -87 47 -83 9 3 11 -4 7 -26 -10 -46 31 -73 108 -71 15 0 29 -4 33 -10
10 -16 25 -12 19 5 -8 20 -1 19 22 -2 10 -10 21 -27 22 -38 2 -11 8 -22 13
-23 6 -2 5 -10 -2 -18 -8 -10 -8 -14 0 -14 7 0 8 -8 1 -25 -5 -14 -6 -25 -3
-25 4 0 2 -5 -4 -11 -7 -7 -8 -23 -3 -45 5 -19 6 -44 3 -57 -4 -18 -3 -19 7
-7 9 13 11 12 8 -5 -3 -30 11 -77 22 -70 6 3 10 1 10 -4 0 -6 -5 -11 -11 -11
-5 0 -8 -4 -4 -10 3 -5 13 -6 21 -3 13 5 15 1 9 -18 -7 -21 -6 -22 8 -11 10 9
17 10 22 2 3 -6 11 -7 17 -4 7 5 9 0 6 -14 -4 -13 -2 -19 6 -16 13 5 76 -58
76 -77 0 -6 7 -17 16 -24 19 -13 12 -50 -11 -59 -9 -3 -12 0 -9 9 3 7 -5 24
-17 36 -15 15 -24 18 -27 11 -5 -17 -22 -15 -22 3 0 8 -7 15 -16 15 -13 0 -14
-3 -5 -13 8 -10 7 -17 -2 -27 -10 -10 -9 -12 6 -7 9 4 17 2 17 -3 0 -6 -3 -10
-7 -10 -5 0 -7 -33 -6 -72 2 -81 4 -96 18 -117 5 -10 4 -16 -3 -19 -6 -2 -14
-19 -18 -38 -3 -19 -9 -34 -13 -34 -7 0 -40 104 -45 145 -3 28 -4 28 -11 8 -4
-13 -11 -20 -16 -17 -5 3 -9 -3 -9 -13 0 -11 -5 -24 -12 -31 -9 -9 -9 -12 2
-12 12 0 12 -2 2 -9 -7 -4 -15 -28 -17 -52 -3 -24 -6 -51 -8 -59 -13 -52 -17
-100 -22 -215 -3 -75 -9 -131 -15 -133 -5 -2 -10 -15 -10 -28 0 -14 -4 -22
-10 -19 -19 12 -10 -19 13 -43 12 -14 16 -22 8 -17 -10 6 -13 4 -9 -6 3 -8 2
-23 -3 -34 -7 -18 -8 -18 -8 -2 -1 10 -5 16 -11 12 -6 -3 -5 -15 2 -31 9 -18
9 -27 0 -36 -7 -7 -12 -19 -12 -27 0 -8 -7 -23 -17 -33 -9 -10 -11 -18 -5 -18
6 0 15 6 19 13 4 6 17 19 27 27 18 14 19 14 8 -7 -16 -29 -15 -43 3 -43 21 0
-9 -35 -57 -66 -21 -13 -38 -29 -38 -34 0 -22 238 -118 395 -159 115 -31 281
-58 291 -49 3 4 -8 14 -24 23 -16 10 -35 33 -43 51 -7 19 -16 34 -20 34 -4 0
-16 16 -28 35 -11 19 -25 35 -32 35 -12 0 -69 51 -69 62 0 4 7 5 15 2 8 -4 15
-1 15 4 0 6 -8 9 -18 7 -10 -2 -23 0 -29 3 -14 10 -24 42 -13 42 19 0 25 -5
22 -20 -2 -11 0 -11 8 2 9 14 15 15 35 6 14 -6 25 -16 25 -22 0 -6 7 -2 16 9
10 13 17 16 22 9 4 -7 15 -8 27 -4 18 7 18 8 -7 15 -16 4 -28 11 -28 16 0 5
-8 9 -17 9 -10 0 -27 8 -38 16 -19 15 -17 16 32 12 28 -3 58 -1 66 4 10 5 18
4 22 -2 4 -6 11 -7 17 -4 6 4 17 -1 23 -10 11 -14 13 -15 19 -1 8 22 -3 45
-20 38 -8 -3 -14 0 -14 7 0 7 -8 9 -20 5 -13 -4 -20 -2 -18 5 2 7 -3 15 -11
18 -10 3 -13 -1 -8 -17 3 -14 1 -21 -10 -21 -8 0 -11 5 -7 11 4 7 1 10 -7 7
-13 -5 -38 18 -39 35 0 5 16 6 35 3 41 -7 44 2 10 34 -14 13 -28 39 -31 59 -4
20 -11 42 -17 49 -5 7 -7 15 -4 18 3 3 -9 29 -27 57 -18 29 -30 60 -28 70 2
12 -3 20 -18 24 -18 5 -21 11 -16 33 5 29 -20 70 -43 70 -16 0 -14 17 4 24 20
7 19 43 -2 55 -13 7 -14 12 -6 23 6 7 14 28 18 45 6 32 25 56 25 33 0 -7 10
-20 21 -29 12 -9 23 -30 25 -46 1 -16 10 -34 18 -41 9 -6 16 -20 16 -31 0 -24
66 -100 77 -89 4 4 1 11 -6 15 -10 6 -11 17 -6 37 6 21 9 24 12 12 3 -10 9
-18 14 -18 18 0 49 41 49 65 0 14 6 28 14 31 8 3 16 13 19 23 4 17 87 41 144
41 21 0 22 2 11 22 -7 13 -19 27 -25 31 -34 22 11 43 112 53 50 5 62 10 58 21
-4 11 -20 14 -63 11 -41 -2 -64 2 -76 12 -34 27 -61 39 -70 30 -8 -8 -10 28
-5 115 0 14 6 24 12 23 6 -2 16 6 22 17 7 11 19 25 27 32 12 10 7 13 -30 14
-25 1 -54 2 -64 3 -25 1 -44 64 -24 78 10 8 10 11 1 15 -29 11 -10 24 31 22
25 -2 51 2 58 9 7 6 26 9 41 8 15 -2 27 1 27 5 0 5 -8 9 -17 9 -15 0 -16 2 -3
10 8 5 32 10 52 10 20 0 52 9 70 19 18 11 49 21 68 23 19 2 38 8 42 13 5 6 8
5 8 -3 0 -7 5 -10 10 -7 6 4 8 11 5 16 -3 5 1 6 10 3 20 -8 75 42 75 67 0 17
-55 44 -70 34 -4 -3 -27 2 -50 10 -23 8 -49 15 -58 15 -28 0 17 -38 46 -38 56
-2 62 -4 62 -17 0 -17 -43 -65 -59 -65 -6 0 -11 5 -11 12 0 6 -8 4 -19 -6 -12
-11 -21 -14 -26 -7 -9 16 -35 13 -35 -4 0 -8 -6 -12 -13 -9 -7 2 -24 1 -38 -4
-20 -8 -27 -5 -41 17 l-18 26 0 -26 c0 -16 -6 -26 -15 -26 -8 0 -15 4 -15 8 0
8 -81 49 -98 49 -6 0 -18 10 -26 22 -9 12 -16 18 -16 12 0 -21 -26 -45 -42
-39 -19 7 -14 40 11 68 14 17 16 17 27 3 10 -14 13 -15 24 -1 21 26 43 19 37
-12 l-5 -28 22 28 c22 27 26 28 74 22 30 -4 59 -2 69 4 16 9 15 10 -7 11 -15
0 -31 5 -38 12 -6 6 -25 11 -42 10 -16 0 -30 4 -30 10 0 6 -7 16 -15 22 -36
27 34 131 81 120 17 -4 22 0 26 20 3 15 1 29 -3 32 -5 3 -2 12 7 21 14 15 14
18 -4 35 -10 10 -28 20 -40 21 -11 0 -20 4 -20 7 1 3 -4 18 -10 33 -11 26 -9
32 28 76 l41 48 -3 99 c-3 103 6 134 42 134 28 0 40 -23 40 -76 0 -50 1 -52
24 -48 18 3 25 -1 29 -17 4 -15 2 -19 -9 -15 -8 3 -14 3 -14 1 0 -11 24 -55
31 -55 4 0 17 -11 30 -25 13 -13 29 -25 34 -25 6 0 3 5 -5 11 -12 9 -12 10 3
5 10 -3 21 -6 23 -6 3 0 3 -4 0 -9 -3 -4 7 -6 22 -4 23 3 24 2 7 -6 -24 -11
152 -5 269 9 111 14 136 31 163 110 35 105 61 89 65 -40 l3 -85 23 49 c20 41
22 54 14 87 -5 22 -6 42 -1 44 4 3 -1 20 -11 38 -22 35 -26 67 -10 67 6 0 17
-13 23 -29 15 -36 30 -30 53 24 13 31 16 68 15 164 -2 162 -18 343 -36 403
-22 75 -101 233 -130 259 -15 13 -32 30 -38 37 -7 7 -20 22 -29 33 -10 10 -18
22 -18 25 0 12 -47 46 -87 64 -13 5 -23 15 -24 22 0 7 -4 5 -8 -6 -6 -17 -9
-16 -24 8 -10 15 -15 31 -12 36 3 5 0 7 -8 4 -8 -3 -18 -1 -22 5 -3 6 2 11 12
12 10 0 -4 6 -30 13 -26 7 -59 24 -72 36 -14 13 -25 20 -25 15 0 -4 -8 1 -18
13 -13 14 -22 18 -33 11 -12 -7 -11 -9 3 -9 10 0 22 -9 28 -19 14 -27 13 -30
-10 -28 -11 1 -20 4 -20 8 0 4 -12 9 -27 11 -16 3 -37 9 -47 13 -14 6 -17 5
-12 -3 4 -7 3 -12 -2 -12 -5 0 -12 9 -15 20 -3 11 -13 20 -22 20 -9 0 -13 -5
-10 -10 4 -6 11 -8 16 -5 5 4 9 -1 9 -10 0 -9 -9 -19 -20 -22 -11 -3 -20 -9
-20 -14 0 -17 -17 -9 -29 14 -7 14 -10 15 -6 3 4 -14 1 -17 -11 -12 -8 3 -18
6 -21 6 -3 0 0 7 7 15 8 10 9 15 2 15 -6 0 -9 7 -6 15 4 8 3 15 0 15 -3 0 -6
-5 -6 -11z m100 -295 c0 -8 5 -12 10 -9 6 4 8 11 5 16 -4 5 -2 9 2 9 5 0 14
-9 21 -20 7 -11 17 -20 23 -20 7 0 17 -8 24 -17 11 -15 15 -15 30 -3 15 13 19
12 36 -9 l19 -23 0 21 c0 12 5 19 10 16 6 -3 10 -15 10 -26 0 -21 15 -26 24
-6 5 9 7 9 12 -2 5 -10 10 -6 20 15 11 26 12 27 13 7 1 -17 5 -21 18 -16 11 4
14 3 9 -5 -4 -7 -1 -12 8 -12 10 0 13 -6 10 -17 -5 -14 -4 -15 4 -4 8 11 16
11 46 1 19 -6 40 -9 45 -6 5 3 11 -1 15 -9 3 -8 12 -15 21 -15 8 0 15 -5 15
-10 0 -6 5 -9 11 -8 6 2 16 -6 22 -17 7 -11 15 -22 18 -25 7 -7 37 -108 42
-145 12 -79 30 -161 37 -170 20 -25 40 -140 40 -235 l0 -101 -27 3 c-22 2 -29
9 -31 30 -2 20 -13 32 -46 47 -23 12 -50 21 -59 21 -10 0 -14 5 -11 15 5 12
-2 15 -28 15 -19 0 -39 -5 -44 -10 -8 -8 -15 -6 -24 5 -8 10 -9 15 -1 15 6 0
11 -5 11 -11 0 -5 4 -8 9 -5 14 9 6 39 -10 44 -11 3 -11 1 1 -7 12 -8 8 -11
-17 -11 -18 0 -33 3 -33 8 0 16 -243 19 -248 3 -2 -6 -10 -11 -18 -11 -8 0
-17 -6 -20 -14 -3 -8 -17 -17 -31 -21 -15 -3 -38 -15 -51 -26 -22 -17 -22 -19
-6 -19 16 0 17 -2 4 -11 -12 -8 -8 -9 15 -6 l30 5 -24 -19 c-26 -22 -96 -26
-108 -6 -4 6 -8 22 -9 35 0 12 -10 29 -20 37 -17 12 -21 12 -31 -2 -8 -10 -13
-12 -13 -5 0 7 -6 12 -14 12 -8 0 -21 8 -28 19 -7 10 -29 23 -48 28 -47 13
-120 80 -120 110 0 22 -3 23 -42 17 l-41 -7 27 36 c16 21 30 54 33 79 3 24 10
49 16 56 14 18 4 24 -25 13 -14 -5 -31 -6 -39 -1 -11 8 -10 12 6 25 16 12 17
14 3 9 -10 -3 -18 -2 -18 3 0 16 23 33 44 33 18 1 19 2 6 13 -21 17 -19 61 3
65 20 4 23 38 5 45 -10 4 -10 7 0 18 16 18 15 25 -7 46 -18 18 -35 63 -23 63
42 -1 75 -40 35 -40 -11 0 -14 -3 -7 -8 6 -4 13 -15 17 -24 3 -10 13 -18 22
-18 20 0 19 17 -1 28 -23 13 -1 55 25 47 10 -3 24 1 31 10 15 18 37 20 43 3 3
-10 9 -9 23 4 13 12 31 15 61 13 30 -3 43 0 47 10 3 9 18 15 36 15 16 0 30 5
30 10 0 6 3 9 8 8 4 0 14 2 22 5 49 19 90 20 90 1z m-397 -45 c-4 -14 -9 -17
-16 -10 -6 6 -19 11 -28 11 -36 0 -26 15 11 17 34 2 37 0 33 -18z m1047 -372
c0 -5 -4 -5 -10 -2 -5 3 -10 14 -10 23 0 15 2 15 10 2 5 -8 10 -19 10 -23z
m-1580 -357 c10 0 1 -38 -12 -46 -5 -3 -6 6 -2 22 5 21 4 25 -6 19 -10 -6 -12
-4 -7 9 4 10 8 30 9 44 1 18 3 15 5 -10 2 -21 8 -38 13 -38z m150 0 c0 -5 -4
-10 -10 -10 -5 0 -10 5 -10 10 0 6 5 10 10 10 6 0 10 -4 10 -10z m234 1 c8
-12 -33 -22 -61 -15 -13 4 -23 2 -23 -3 0 -6 -12 -15 -26 -21 -14 -7 -23 -8
-19 -2 3 5 1 10 -5 10 -17 0 -1 20 24 30 28 12 103 12 110 1z m673 3 c-3 -3
-12 -4 -19 -1 -8 3 -5 6 6 6 11 1 17 -2 13 -5z m258 -4 c-7 -11 18 -14 29 -3
4 4 24 8 44 9 51 2 92 -28 92 -67 0 -36 -25 -49 -45 -23 -12 16 -17 17 -34 6
-18 -10 -21 -10 -21 3 0 9 -8 14 -21 12 -30 -3 -36 20 -7 26 18 3 16 5 -9 6
-17 0 -33 -4 -35 -10 -5 -16 -78 0 -78 17 0 8 -7 14 -16 14 -8 0 -13 3 -10 8
2 4 30 8 61 10 37 2 54 -1 50 -8z m-1109 -14 c20 -20 18 -23 -16 -28 -16 -3
-30 -3 -30 -2 0 1 -3 9 -6 17 -3 10 2 17 13 20 10 3 19 5 21 6 2 0 10 -5 18
-13z m-80 -47 c-9 -20 -15 -27 -16 -16 0 20 19 61 26 54 2 -2 -2 -19 -10 -38z
m802 -20 c-1 -22 7 -38 28 -56 21 -17 29 -34 29 -56 0 -27 4 -32 28 -35 15 -2
27 2 27 8 0 7 14 9 38 6 36 -5 36 -5 10 6 -44 19 -33 29 25 23 34 -4 47 -3 38
3 -18 13 43 21 134 16 39 -1 77 1 85 6 11 7 12 10 2 10 -10 0 -10 4 2 15 14
14 19 14 57 -5 l41 -22 -6 -46 c-13 -99 -59 -123 -247 -130 -97 -3 -139 -1
-181 12 -49 14 -57 20 -80 63 -34 65 -57 213 -33 213 2 0 3 -14 3 -31z m351
-15 c14 -12 -19 -1 -35 12 -18 14 -18 14 6 3 14 -6 27 -13 29 -15z m-1152
-106 c-2 -13 -4 -3 -4 22 0 25 2 35 4 23 2 -13 2 -33 0 -45z m333 42 c0 -12
-29 -26 -52 -25 -10 0 -17 5 -15 10 1 6 12 9 25 7 12 -1 22 2 22 8 0 5 5 10
10 10 6 0 10 -4 10 -10z m204 -72 c-14 -20 -15 -20 -9 -3 4 11 10 29 13 40 5
17 7 18 10 3 2 -10 -4 -28 -14 -40z m-319 22 c-3 -5 -13 -10 -21 -10 -8 0 -12
5 -9 10 3 6 13 10 21 10 8 0 12 -4 9 -10z m286 -83 l-23 -22 17 28 c10 15 20
25 23 22 3 -3 -5 -16 -17 -28z m313 17 c3 -8 2 -12 -4 -9 -6 3 -10 10 -10 16
0 14 7 11 14 -7z m-1013 -140 c4 -27 10 -58 14 -69 5 -17 2 -21 -17 -20 -34 0
-48 13 -48 41 0 27 -16 65 -32 75 -5 3 -3 12 5 20 7 8 12 20 9 27 -2 8 8 6 30
-6 28 -16 34 -25 39 -68z m759 26 c0 -5 -2 -10 -4 -10 -3 0 -8 5 -11 10 -3 6
-1 10 4 10 6 0 11 -4 11 -10z m-266 -25 c-4 -9 2 -16 18 -20 21 -5 23 -11 20
-48 -3 -23 -9 -48 -15 -55 -5 -7 -11 -27 -13 -45 -1 -17 -5 -45 -9 -62 -16
-66 -22 -374 -9 -427 4 -19 2 -28 -5 -28 -20 0 -97 83 -109 118 -6 18 -18 40
-27 48 -8 8 -15 26 -15 39 0 13 -5 27 -11 30 -7 5 -3 15 11 30 24 25 20 45 -8
45 -15 0 -18 12 -21 73 -7 142 0 186 36 234 17 23 22 40 17 58 l-6 25 76 0
c62 0 74 -3 70 -15z m-397 -217 c-3 -8 -6 -5 -6 6 -1 11 2 17 5 13 3 -3 4 -12
1 -19z m80 -1210 c-3 -8 -6 -5 -6 6 -1 11 2 17 5 13 3 -3 4 -12 1 -19z m276
-224 c26 -9 47 -20 47 -24 0 -10 -17 -7 -53 10 -24 12 -30 12 -38 -1 -7 -12
-9 -11 -9 3 0 9 -6 19 -12 21 -33 13 23 5 65 -9z m-134 -36 c12 -15 11 -18 -3
-18 -10 0 -16 8 -16 22 0 12 1 19 3 17 1 -2 9 -12 16 -21z m-29 -33 c14 -19
14 -19 -2 -6 -10 7 -18 18 -18 24 0 6 1 8 3 6 1 -2 9 -13 17 -24z m33 -46 c-9
-9 -8 -17 3 -34 13 -20 13 -23 0 -28 -9 -4 -17 1 -21 14 -8 24 3 59 18 59 8 0
8 -3 0 -11z m34 -71 c-3 -8 -6 -5 -6 6 -1 11 2 17 5 13 3 -3 4 -12 1 -19z m3
-94 c0 -8 -5 -12 -10 -9 -6 4 -8 11 -5 16 9 14 15 11 15 -7z m67 0 c-3 -4 -2
-16 4 -28 10 -20 9 -20 -5 -2 -14 17 -13 36 1 36 4 0 3 -3 0 -6z"/>
<path d="M1749 2943 c-1 -4 -1 -11 0 -15 0 -5 -8 -8 -19 -8 -11 0 -20 -4 -20
-8 0 -4 16 -6 36 -4 25 3 34 9 32 20 -3 16 -27 29 -29 15z"/>
<path d="M1752 2893 c-10 -4 -10 -8 -2 -19 9 -10 15 -11 25 -1 21 20 7 32 -23
20z"/>
<path d="M2350 2230 c0 -15 7 -20 25 -20 23 0 24 2 13 20 -7 11 -18 20 -25 20
-7 0 -13 -9 -13 -20z"/>
<path d="M1575 1850 c3 -5 8 -10 11 -10 2 0 4 5 4 10 0 6 -5 10 -11 10 -5 0
-7 -4 -4 -10z"/>
<path d="M1550 1825 c0 -8 5 -15 10 -15 6 0 10 7 10 15 0 8 -4 15 -10 15 -5 0
-10 -7 -10 -15z"/>
<path d="M1693 3525 c-13 -14 -6 -55 9 -55 5 0 6 4 3 10 -3 5 -1 18 5 29 12
23 0 35 -17 16z"/>
<path d="M1729 3493 c-13 -15 -12 -15 9 -4 23 12 28 21 13 21 -5 0 -15 -7 -22
-17z"/>
<path d="M1780 3490 c0 -5 5 -10 11 -10 5 0 7 5 4 10 -3 6 -8 10 -11 10 -2 0
-4 -4 -4 -10z"/>
<path d="M3208 3344 c-5 -4 -8 -16 -8 -28 0 -14 3 -17 11 -9 6 6 9 19 7 28 -1
9 -6 13 -10 9z"/>
<path d="M1515 3330 c-11 -5 -15 -9 -10 -10 6 0 1 -6 -10 -13 -32 -19 -28 -35
8 -34 18 1 30 6 27 12 -3 5 -14 8 -25 7 l-20 -3 20 12 c11 7 22 16 25 19 3 4
14 10 25 13 l20 5 -20 0 c-11 0 -29 -3 -40 -8z"/>
<path d="M1540 3310 c0 -5 5 -10 10 -10 6 0 10 5 10 10 0 6 -4 10 -10 10 -5 0
-10 -4 -10 -10z"/>
<path d="M1330 3129 c0 -5 5 -7 10 -4 6 3 10 8 10 11 0 2 -4 4 -10 4 -5 0 -10
-5 -10 -11z"/>
<path d="M1227 3017 c2 -4 -7 -5 -21 -1 -20 5 -26 2 -26 -11 0 -10 5 -14 13
-9 6 4 1 -5 -12 -20 -14 -14 -26 -33 -27 -40 -2 -15 20 -16 33 -1 4 4 2 5 -4
1 -29 -17 -10 15 31 51 32 28 39 39 26 39 -10 0 -16 -4 -13 -9z"/>
<path d="M1257 3003 c-10 -9 -9 -23 2 -23 5 0 11 7 15 15 5 15 -5 20 -17 8z"/>
<path d="M1065 2430 c-3 -5 1 -10 10 -10 9 0 13 5 10 10 -3 6 -8 10 -10 10 -2
0 -7 -4 -10 -10z"/>
<path d="M2876 2407 c3 -10 9 -15 12 -12 3 3 0 11 -7 18 -10 9 -11 8 -5 -6z"/>
<path d="M942 2388 c-8 -10 1 -14 37 -15 36 -2 48 1 48 12 0 19 -70 21 -85 3z"/>
<path d="M2902 2380 c0 -14 2 -19 5 -12 2 6 2 18 0 25 -3 6 -5 1 -5 -13z"/>
<path d="M1108 2373 c7 -12 12 -41 12 -64 0 -23 2 -40 4 -38 6 7 16 112 9 105
-3 -3 -13 0 -21 7 -13 10 -14 9 -4 -10z"/>
<path d="M2780 2369 c0 -5 5 -7 10 -4 6 3 10 8 10 11 0 2 -4 4 -10 4 -5 0 -10
-5 -10 -11z"/>
<path d="M2920 2360 c-1 -3 -4 -32 -6 -65 -3 -33 -9 -64 -13 -70 -11 -13 -20
-65 -12 -65 17 1 42 53 37 75 -4 16 0 30 13 42 13 13 16 24 10 38 -4 11 -8 16
-9 10 -1 -5 -6 1 -10 15 -4 14 -9 23 -10 20z"/>
<path d="M970 2341 c0 -10 30 -24 37 -17 3 2 -5 9 -16 16 -12 6 -21 7 -21 1z"/>
<path d="M2832 2322 c-14 -9 -6 -42 10 -42 6 0 8 -11 4 -27 -19 -79 -23 -104
-16 -108 9 -6 50 109 50 140 0 20 -17 45 -29 45 -4 0 -12 -4 -19 -8z"/>
<path d="M1970 2190 c0 -5 7 -10 15 -10 8 0 15 5 15 10 0 6 -7 10 -15 10 -8 0
-15 -4 -15 -10z"/>
<path d="M2717 2081 c-2 -42 -4 -77 -3 -78 0 -1 13 -4 28 -8 23 -6 27 -3 33
24 8 38 -7 93 -33 119 -19 19 -20 19 -25 -57z"/>
<path d="M2850 2073 c-7 -16 -19 -53 -26 -83 -7 -30 -18 -76 -24 -101 -13 -53
-52 -82 -102 -77 l-32 3 -17 -100 c-24 -142 -48 -203 -113 -289 -30 -39 -37
-57 -42 -115 -6 -66 -5 -71 23 -107 34 -44 49 -71 91 -164 l30 -65 93 -34 c52
-19 137 -54 189 -79 108 -50 110 -51 205 -87 39 -14 107 -44 153 -66 46 -21
105 -46 133 -55 l49 -16 43 48 c97 111 201 263 266 392 17 34 31 64 31 67 0
10 -35 5 -64 -10 -15 -8 -35 -15 -42 -15 -8 0 -14 -10 -14 -25 0 -14 -4 -25
-10 -25 -10 0 -14 14 -11 38 1 6 -3 12 -9 12 -5 0 -10 7 -10 15 0 8 -4 15 -10
15 -17 0 -11 -27 7 -34 12 -5 13 -10 5 -18 -13 -13 -46 -3 -37 12 3 5 -3 10
-14 10 -13 0 -23 11 -31 35 -11 33 -9 38 17 70 27 34 29 35 88 30 59 -5 61 -4
104 35 25 22 53 40 63 40 24 0 42 44 27 68 -8 13 -24 17 -69 16 -32 0 -65 -5
-72 -11 -28 -24 -65 -25 -119 -2 -57 23 -82 46 -75 65 6 16 -17 25 -35 13 -26
-17 -133 7 -150 33 -3 5 -17 9 -30 10 -13 0 -35 5 -48 12 -19 9 -25 8 -29 -2
-3 -10 -7 -9 -16 4 -11 15 -16 15 -42 2 -16 -8 -36 -13 -45 -11 -9 2 -19 -3
-23 -13 -5 -13 -2 -15 19 -10 14 4 25 2 25 -4 0 -5 -3 -10 -7 -11 -42 -3 -73
-7 -98 -13 -26 -6 -36 -1 -72 32 -39 36 -67 92 -47 92 9 0 13 91 4 100 -15 15
-39 69 -41 95 -5 49 12 117 37 151 l24 31 -23 30 c-33 44 -54 63 -62 55 -4 -4
-4 3 -1 16 10 31 2 28 -14 -5z m-66 -435 c14 -6 35 -27 47 -46 41 -71 -4 -142
-90 -142 -94 0 -127 122 -48 178 36 25 55 27 91 10z m393 -219 c15 -7 39 -11
53 -10 19 1 31 -9 53 -43 32 -50 33 -62 9 -75 -22 -12 -148 11 -145 26 2 7 -4
24 -12 39 -8 15 -13 30 -11 33 2 3 6 14 9 24 8 20 8 20 44 6z m-187 -247 c35
-43 19 -98 -36 -133 -66 -40 -161 4 -148 69 7 34 59 88 89 94 38 7 76 -5 95
-30z"/>
<path d="M2206 2072 c-3 -6 -1 -14 5 -17 15 -10 25 3 12 16 -7 7 -13 7 -17 1z"/>
<path d="M850 2040 c0 -5 9 -10 21 -10 11 0 17 5 14 10 -3 6 -13 10 -21 10 -8
0 -14 -4 -14 -10z"/>
<path d="M2035 2034 c-14 -14 -15 -19 -4 -23 8 -2 16 -7 19 -10 10 -12 50 -31
65 -31 18 0 20 43 2 58 -25 21 -63 24 -82 6z"/>
<path d="M560 2031 c0 -6 -17 -11 -39 -11 -31 0 -40 -4 -46 -22 -4 -13 -6 -29
-6 -35 1 -7 -8 -13 -20 -13 l-23 0 22 -20 c12 -12 22 -25 22 -30 0 -23 47 -8
69 20 12 17 26 28 32 25 15 -10 10 -25 -8 -25 -13 0 -14 -3 -5 -12 7 -7 12
-30 11 -52 0 -27 -3 -35 -7 -23 -7 16 -11 14 -31 -14 -21 -28 -25 -30 -33 -14
-7 11 -6 21 1 28 16 16 13 27 -6 27 -13 0 -18 -8 -19 -29 -1 -16 -5 -37 -9
-47 -5 -11 -9 -23 -9 -29 -1 -5 -12 -12 -25 -13 -13 -2 -34 -15 -48 -28 -31
-31 -66 -39 -104 -23 -30 12 -31 14 -27 61 4 41 2 48 -13 48 -9 0 -19 5 -21
11 -4 12 -45 -5 -59 -24 -9 -13 -89 4 -102 22 -7 10 -20 20 -29 24 -22 8 -22
2 -3 -127 17 -115 34 -176 48 -176 6 0 7 -3 4 -6 -11 -12 13 -43 28 -38 20 8
20 -34 0 -56 -14 -15 -12 -26 19 -111 68 -189 200 -426 303 -548 l29 -34 110
55 c60 30 147 70 194 87 89 34 158 62 226 92 22 9 57 21 77 24 30 6 45 19 86
74 26 36 54 83 60 103 7 21 30 59 52 85 37 45 39 51 33 93 -4 25 -11 48 -17
51 -5 4 -4 8 4 11 10 3 8 17 -10 64 -25 65 -57 178 -66 237 -4 23 -11 37 -20
37 -8 0 -15 7 -15 15 0 8 -6 14 -12 13 -7 -2 -12 3 -10 10 1 6 -5 12 -13 12
-8 0 -12 6 -9 14 4 9 -6 16 -30 20 -20 4 -48 17 -63 30 -15 13 -34 21 -41 18
-7 -2 -12 2 -11 9 2 8 -5 28 -14 44 -16 27 -17 27 -11 5 4 -14 9 -30 11 -36 3
-7 -5 -10 -22 -6 -15 2 -24 10 -22 16 3 8 -4 12 -17 12 -15 -1 -21 5 -20 20 0
16 -4 20 -18 16 -10 -2 -20 2 -24 12 -4 10 -18 16 -41 16 -23 0 -40 7 -52 21
-14 17 -31 21 -104 26 -60 4 -87 2 -87 -6z m-190 -377 c0 -2 -11 -4 -25 -4
-14 0 -25 4 -25 9 0 4 11 6 25 3 14 -2 25 -6 25 -8z m19 -45 c42 -40 53 -102
24 -136 -35 -39 -142 -46 -171 -11 -25 31 -13 108 22 144 30 30 94 31 125 3z
m701 -179 c-20 -13 -33 -13 -25 0 3 6 14 10 23 10 15 0 15 -2 2 -10z"/>
<path d="M2278 1971 c9 -15 21 -28 26 -29 5 0 13 -6 17 -14 7 -11 9 -11 9 0 0
21 -39 72 -56 72 -11 0 -10 -5 4 -29z"/>
<path d="M910 1961 c0 -5 7 -11 15 -15 8 -3 15 -1 15 3 0 5 -7 11 -15 15 -8 3
-15 1 -15 -3z"/>
<path d="M1190 1830 c-9 -6 -10 -10 -3 -10 6 0 15 5 18 10 8 12 4 12 -15 0z"/>
<path d="M1920 1790 c0 -5 9 -10 21 -10 11 0 17 5 14 10 -3 6 -13 10 -21 10
-8 0 -14 -4 -14 -10z"/>
<path d="M2055 1740 c3 -5 8 -10 11 -10 2 0 4 5 4 10 0 6 -5 10 -11 10 -5 0
-7 -4 -4 -10z"/>
<path d="M2290 1738 c0 -24 11 -48 22 -48 5 0 6 10 3 23 -10 30 -25 46 -25 25z"/>
<path d="M1913 1468 c2 -7 12 -13 22 -13 10 0 20 6 23 13 2 7 -6 12 -23 12
-17 0 -25 -5 -22 -12z"/>
<path d="M2485 1179 c-3 -19 -4 -86 -3 -149 1 -64 -3 -137 -10 -165 -18 -76
-71 -203 -112 -270 -20 -33 -35 -66 -33 -72 3 -7 -2 -16 -11 -19 -23 -9 -10
-23 17 -17 20 4 20 3 5 -9 -9 -8 -18 -20 -20 -27 -2 -7 -16 -26 -31 -42 -19
-20 -26 -35 -22 -48 4 -14 0 -21 -12 -24 -17 -4 -17 -5 0 -6 15 -1 16 -3 5
-15 -9 -10 -15 -11 -20 -2 -5 6 -8 2 -8 -11 0 -11 -14 -33 -31 -47 -20 -17
-25 -26 -15 -26 24 0 19 -13 -8 -26 -20 -9 -23 -9 -19 2 3 9 -2 14 -12 14 -10
0 -15 -6 -12 -12 2 -7 1 -22 -4 -33 l-8 -20 0 20 c-1 17 -3 17 -11 5 -8 -13
-10 -13 -10 0 0 11 -3 11 -12 2 -9 -9 -8 -15 7 -25 17 -13 17 -14 -5 -20 -12
-3 -19 -10 -15 -16 4 -7 -8 -11 -32 -12 -33 -1 -35 -2 -13 -8 l25 -7 -22 -8
c-13 -4 -28 -4 -34 0 -8 4 -9 3 -5 -4 5 -8 -1 -12 -16 -13 -22 0 -22 -1 -3 -9
16 -7 12 -9 -20 -11 l-40 -2 40 -7 c39 -7 40 -7 7 -9 -31 -1 -32 -2 -17 -17
14 -15 32 -16 133 -10 64 4 137 9 162 12 72 7 250 46 250 54 0 4 -11 6 -26 4
-21 -2 -23 0 -13 12 8 10 8 14 0 14 -16 0 -14 23 4 46 14 18 14 17 5 -11 -7
-23 -7 -26 2 -14 10 14 14 12 38 -15 l28 -31 78 23 c96 28 264 101 264 114 0
5 -4 6 -10 3 -5 -3 -10 1 -10 9 0 19 26 22 32 4 3 -9 12 -9 36 1 24 10 32 20
32 38 0 18 4 24 15 20 8 -4 17 -1 21 5 4 7 9 6 15 -3 8 -11 12 -11 23 4 7 9
18 17 25 17 23 0 235 155 285 209 27 28 28 33 16 56 -7 14 -11 28 -7 31 3 4 1
12 -6 18 -21 20 -122 62 -139 58 -4 -1 -15 12 -23 28 -18 34 -50 42 -40 10 5
-15 0 -21 -19 -26 -48 -12 -64 20 -18 37 26 10 26 11 8 25 -25 18 -37 18 -30
0 3 -8 -3 -16 -14 -19 -15 -3 -25 4 -38 29 -10 19 -25 34 -33 34 -8 0 -29 11
-46 24 -18 14 -44 28 -59 32 -14 3 -29 10 -32 15 -3 5 -12 9 -21 9 -14 0 -14
-3 1 -25 19 -29 21 -56 4 -49 -7 3 -28 24 -46 48 -18 24 -42 46 -53 49 -16 4
-10 -5 20 -36 22 -23 47 -50 54 -60 7 -11 25 -20 40 -20 15 -1 27 -8 27 -15 0
-9 -7 -11 -20 -7 -13 4 -20 2 -20 -7 0 -23 38 -76 58 -82 25 -8 37 -36 17 -36
-8 0 -15 7 -15 15 0 8 -4 15 -10 15 -13 0 -13 -27 0 -35 6 -4 9 -12 8 -18 -2
-7 3 -27 11 -45 8 -18 11 -35 8 -38 -10 -10 -27 7 -27 27 0 24 -17 25 -22 2
-2 -10 4 -25 14 -34 12 -11 21 -37 25 -70 3 -30 12 -64 19 -76 18 -29 18 -33
-6 -33 -22 0 -28 -28 -9 -47 8 -8 7 -13 -1 -18 -7 -4 -16 -2 -20 5 -4 7 -12
10 -18 6 -5 -3 -15 1 -22 9 -23 27 -31 16 -25 -37 6 -53 6 -53 -8 -18 -7 19
-18 34 -25 33 -7 -2 -12 4 -12 13 0 8 5 12 10 9 20 -12 10 24 -14 49 -22 24
-43 36 -32 18 3 -5 7 -29 10 -54 3 -25 9 -54 12 -64 6 -17 5 -18 -10 -3 -9 8
-18 31 -20 51 -2 19 -6 40 -10 47 -4 6 -4 17 0 23 5 8 0 7 -11 -2 -17 -14 -17
-13 -11 10 7 24 6 24 -8 6 -11 -13 -16 -15 -16 -6 0 7 -7 22 -17 32 -13 15
-14 18 -2 18 8 0 20 -5 27 -12 9 -9 12 -4 12 25 0 27 -6 39 -21 47 -12 7 -18
18 -15 26 3 8 1 14 -4 14 -6 0 -10 7 -10 16 0 8 5 12 10 9 6 -3 10 0 10 7 0 9
3 9 10 -2 5 -8 7 -22 4 -32 -2 -9 1 -20 7 -24 9 -5 11 6 6 47 -3 30 -8 62 -12
72 -4 9 -3 17 3 17 12 0 22 -34 22 -77 0 -23 5 -33 15 -33 18 0 18 4 1 55 -8
22 -12 48 -10 58 2 14 -1 17 -13 13 -9 -4 -20 -1 -24 6 -4 7 -11 9 -16 5 -4
-5 -3 -11 2 -15 13 -9 17 -64 4 -57 -5 4 -9 12 -9 19 0 7 -7 26 -15 43 -13 26
-27 148 -29 253 0 19 -4 38 -8 41 -5 3 -12 28 -17 56 -6 43 -65 170 -91 197
-5 5 -11 -7 -15 -25z m416 -465 c12 -14 11 -16 -5 -13 -11 2 -21 10 -24 17 -5
17 13 15 29 -4z m156 0 c-3 -3 -12 -4 -19 -1 -8 3 -5 6 6 6 11 1 17 -2 13 -5z
m-50 -61 c12 -18 13 -27 4 -36 -8 -8 -11 -8 -11 3 0 8 -12 26 -26 41 -25 26
-25 28 -5 22 12 -3 29 -17 38 -30z m312 -49 c2 -2 1 -10 -3 -19 -5 -15 -9 -14
-35 5 -16 11 -36 19 -43 18 -8 -2 -12 4 -10 15 4 21 -14 22 -26 1 -6 -10 -18
-14 -33 -11 -24 4 -24 5 -2 12 11 4 23 16 26 26 5 19 9 18 64 -12 32 -17 60
-33 62 -35z m-219 25 c0 -11 -27 -12 -34 0 -3 4 -3 11 0 14 8 8 34 -3 34 -14z
m-450 -9 c0 -5 -7 -7 -15 -4 -8 4 -15 8 -15 10 0 2 7 4 15 4 8 0 15 -4 15 -10z
m290 -125 c10 -12 10 -15 -4 -15 -9 0 -16 7 -16 15 0 8 2 15 4 15 2 0 9 -7 16
-15z m200 -1 c0 -8 -5 -12 -10 -9 -7 4 -8 -3 -4 -22 8 -33 -6 -22 -24 20 -11
25 -10 27 13 27 16 0 25 -6 25 -16z m-200 -34 c0 -5 -2 -10 -4 -10 -3 0 -8 5
-11 10 -3 6 -1 10 4 10 6 0 11 -4 11 -10z m30 -40 c0 -5 -4 -10 -10 -10 -5 0
-10 5 -10 10 0 6 5 10 10 10 6 0 10 -4 10 -10z m10 -52 c8 -2 15 -16 15 -30 1
-20 -3 -24 -22 -20 -19 4 -23 11 -23 41 0 20 4 31 8 25 4 -6 14 -13 22 -16z
m160 12 c0 -5 -2 -10 -4 -10 -3 0 -8 5 -11 10 -3 6 -1 10 4 10 6 0 11 -4 11
-10z m-60 -31 c0 -5 -4 -9 -10 -9 -5 0 -10 7 -10 16 0 8 5 12 10 9 6 -3 10
-10 10 -16z m-378 -54 c7 -7 8 1 3 25 -5 23 -4 32 3 25 16 -17 23 -75 9 -75
-29 0 -46 24 -39 55 6 29 7 29 10 5 2 -14 8 -29 14 -35z m-59 -1 c-7 -19 -22
-8 -20 16 1 14 5 16 13 9 7 -6 10 -17 7 -25z m35 -56 c3 10 9 9 29 -3 13 -9
31 -14 39 -11 10 4 14 -3 14 -26 0 -17 -3 -28 -7 -24 -5 4 -8 13 -8 19 0 7
-22 17 -50 22 -28 6 -51 16 -53 24 -3 12 -1 12 14 0 14 -11 18 -11 22 -1z
m-221 -64 c-3 -3 -12 -4 -19 -1 -8 3 -5 6 6 6 11 1 17 -2 13 -5z"/>
<path d="M1030 947 c-14 -7 -24 -21 -24 -31 3 -26 -49 -78 -69 -70 -10 3 -17
1 -17 -5 0 -15 -63 -81 -77 -81 -6 0 -27 -16 -47 -35 -42 -39 -66 -45 -66 -15
0 27 -16 25 -25 -2 -4 -14 -8 -18 -12 -10 -5 13 -43 17 -43 3 0 -4 -11 -6 -25
-3 -33 6 -27 26 8 30 15 2 32 12 37 23 13 23 3 24 -24 4 -11 -8 -27 -15 -35
-15 -9 0 -23 -5 -31 -10 -13 -9 -13 -11 0 -20 22 -13 -1 -33 -39 -33 l-30 0
34 -41 c57 -70 272 -256 296 -256 4 0 24 52 44 115 31 96 40 115 57 115 15 0
18 -4 13 -22 -4 -13 -14 -29 -23 -35 -14 -12 -14 -14 3 -27 19 -13 18 -15 -15
-46 -31 -29 -33 -33 -17 -45 15 -11 14 -13 -8 -23 -31 -14 -33 -32 -3 -32 21
0 21 0 2 -14 -10 -8 -17 -16 -14 -18 18 -13 90 -58 117 -71 l31 -16 0 35 c0
19 6 41 12 49 8 10 9 15 1 15 -7 0 -8 8 0 28 15 37 11 253 -4 269 -4 3 -2 12
4 20 8 8 8 13 1 13 -6 0 -9 19 -6 49 4 47 4 49 -17 44 -19 -5 -21 -3 -15 13 4
10 12 41 18 69 5 27 16 60 24 73 17 26 17 26 -16 9z m-15 -217 c-3 -5 -14 -10
-23 -10 -15 0 -15 2 -2 10 20 13 33 13 25 0z m-189 -16 c-3 -9 -6 -18 -6 -20
0 -2 -7 -4 -15 -4 -13 0 -13 3 -3 20 15 24 33 27 24 4z m154 -68 c0 -2 -7 -6
-15 -10 -8 -3 -15 -1 -15 4 0 6 7 10 15 10 8 0 15 -2 15 -4z m-43 -271 c0 -8
-4 -15 -9 -15 -4 0 -8 7 -8 15 0 8 4 15 8 15 5 0 9 -7 9 -15z m83 -15 c0 -5
-4 -10 -9 -10 -6 0 -13 5 -16 10 -3 6 1 10 9 10 9 0 16 -4 16 -10z"/>
<path d="M2682 839 c2 -7 10 -15 17 -17 8 -3 12 1 9 9 -2 7 -10 15 -17 17 -8
3 -12 -1 -9 -9z"/>
<path d="M700 810 c-8 -5 -10 -10 -5 -10 6 0 17 5 25 10 8 5 11 10 5 10 -5 0
-17 -5 -25 -10z"/>
<path d="M2645 797 c-9 -21 19 -67 34 -57 9 5 10 10 2 14 -6 4 -11 16 -11 26
0 23 -18 36 -25 17z"/>
<path d="M690 780 c0 -5 5 -10 10 -10 6 0 10 5 10 10 0 6 -4 10 -10 10 -5 0
-10 -4 -10 -10z"/>
<path d="M1067 783 c-4 -3 -7 -11 -7 -17 0 -6 5 -5 12 2 6 6 9 14 7 17 -3 3
-9 2 -12 -2z"/>
<path d="M2655 710 c3 -5 10 -10 16 -10 5 0 9 5 9 10 0 6 -7 10 -16 10 -8 0
-12 -4 -9 -10z"/>
<path d="M2694 696 c-7 -19 4 -35 14 -21 4 6 13 10 21 10 8 0 16 7 18 15 4 13
3 13 -5 1 -9 -12 -13 -12 -26 -2 -13 11 -17 11 -22 -3z"/>
<path d="M2770 695 c0 -8 4 -15 10 -15 5 0 7 7 4 15 -4 8 -8 15 -10 15 -2 0
-4 -7 -4 -15z"/>
<path d="M2833 649 c4 -13 7 -27 7 -31 0 -5 4 -8 9 -8 11 0 1 49 -12 57 -6 4
-8 -2 -4 -18z"/>
<path d="M2800 636 c0 -9 5 -16 10 -16 6 0 10 4 10 9 0 6 -4 13 -10 16 -5 3
-10 -1 -10 -9z"/>
<path d="M2780 596 c0 -8 8 -17 17 -20 15 -6 15 -8 3 -16 -13 -8 -13 -10 1
-10 9 0 19 7 23 15 3 9 12 12 22 8 12 -4 15 -3 10 5 -4 7 -18 12 -32 12 -13 0
-24 5 -24 10 0 6 -4 10 -10 10 -5 0 -10 -6 -10 -14z"/>
<path d="M2765 520 c3 -5 8 -10 11 -10 2 0 4 5 4 10 0 6 -5 10 -11 10 -5 0 -7
-4 -4 -10z"/>
<path d="M2800 511 c0 -14 6 -17 25 -13 28 5 33 17 9 26 -26 10 -34 7 -34 -13z"/>
<path d="M2837 447 c-3 -8 0 -20 6 -26 19 -19 -1 -24 -34 -7 -39 20 -39 20
-39 1 0 -8 4 -15 9 -15 5 0 14 -13 20 -30 7 -20 17 -30 30 -30 12 0 21 5 21
11 0 6 -7 9 -15 5 -10 -4 -15 1 -15 15 0 18 4 20 30 14 35 -8 35 -9 12 39 -13
27 -21 34 -25 23z"/>
<path d="M2725 420 c3 -5 11 -10 16 -10 6 0 7 5 4 10 -3 6 -11 10 -16 10 -6 0
-7 -4 -4 -10z"/>
<path d="M2892 405 c0 -16 2 -22 5 -12 2 9 2 23 0 30 -3 6 -5 -1 -5 -18z"/>
<path d="M1905 390 c3 -5 10 -10 16 -10 5 0 9 5 9 10 0 6 -7 10 -16 10 -8 0
-12 -4 -9 -10z"/>
<path d="M1802 368 c-7 -7 -12 -16 -12 -21 0 -5 7 -1 16 8 9 9 14 18 12 20 -2
3 -10 -1 -16 -7z"/>
<path d="M1680 341 c0 -18 3 -19 26 -11 14 6 30 7 36 4 6 -4 9 -1 6 7 -2 7
-19 14 -36 16 -27 4 -32 1 -32 -16z"/>
<path d="M2862 349 c2 -7 10 -15 17 -17 8 -3 12 1 9 9 -2 7 -10 15 -17 17 -8
3 -12 -1 -9 -9z"/>
<path d="M1981 334 c0 -11 3 -14 6 -6 3 7 2 16 -1 19 -3 4 -6 -2 -5 -13z"/>
<path d="M1125 319 c-11 -17 1 -21 15 -4 8 9 8 15 2 15 -6 0 -14 -5 -17 -11z"/>
<path d="M1056 304 c-17 -12 -17 -14 -4 -14 9 0 20 5 23 11 11 17 2 18 -19 3z"/>
<path d="M1746 303 c-6 -14 -5 -15 5 -6 7 7 10 15 7 18 -3 3 -9 -2 -12 -12z"/>
<path d="M1600 256 c0 -23 16 -27 17 -5 1 10 -2 19 -8 19 -5 0 -9 -6 -9 -14z"/>
<path d="M1630 253 c0 -5 5 -15 10 -23 7 -12 9 -10 7 8 -1 19 -17 33 -17 15z"/>
<path d="M2076 212 c-3 -5 1 -9 9 -9 8 0 15 4 15 9 0 4 -4 8 -9 8 -6 0 -12 -4
-15 -8z"/>
<path d="M1666 175 c4 -8 8 -15 10 -15 2 0 4 7 4 15 0 8 -4 15 -10 15 -5 0 -7
-7 -4 -15z"/>
<path d="M1730 169 c0 -5 5 -7 10 -4 6 3 10 8 10 11 0 2 -4 4 -10 4 -5 0 -10
-5 -10 -11z"/>
<path d="M1800 35 c0 -9 5 -15 11 -13 6 2 11 8 11 13 0 5 -5 11 -11 13 -6 2
-11 -4 -11 -13z"/>
<path d="M1878 13 c6 -2 18 -2 25 0 6 3 1 5 -13 5 -14 0 -19 -2 -12 -5z"/>
</g>
</svg>
